Format : MPEG-4
Format profile : Base Media
Codec ID : isom
File size : 175 MiB
Duration : 26mn 39s
Overall bit rate mode : Variable
Overall bit rate : 918 Kbps
Writing application : Lavf52.93.0
Video
ID : 1
Format : AVC
Format/Info : Advanced Video Codec
Format profile : High@L3.0
Format settings, CABAC : Yes
Format settings, ReFrames : 4 frames
Codec ID : avc1
Codec ID/Info : Advanced Video Coding
Duration : 26mn 39s
Bit rate mode : Variable
Bit rate : 868 Kbps
Width : 640 pixels
Height : 360 pixels
Display aspect ratio : 16:9
Frame rate mode : Constant
Frame rate : 29.970 fps
Color space : YUV
Chroma subsampling : 4:2:0
Bit depth : 8 bits
Scan type : Progressive
Bits/(Pixel*Frame) : 0.126
Stream size : 164 MiB (94%)
Audio
ID : 2
Format : AAC
Format/Info : Advanced Audio Codec
Format profile : LC
Codec ID : 40
Duration : 26mn 39s
Bit rate mode : Variable
Bit rate : 52.5 Kbps
Channel(s) : 2 channels
Channel positions : Front: L R
Sampling rate : 44.1 KHz
Compression mode : Lossy
Delay relative to video : -1s 1ms
Stream size : 10.0 MiB (6%)
